<svg width="1200" height="1200" viewBox="0 0 1200 1200" fill="none" xmlns="http://www.w3.org/2000/svg" role="img" aria-label="Ilustração de materiais de estudo para Português e Filosofia">
  <defs>
    <linearGradient id="bgGlow" x1="194" y1="154" x2="1020" y2="998" gradientUnits="userSpaceOnUse">
      <stop stop-color="#EDF8FD" />
      <stop offset="1" stop-color="#DCEBF6" />
    </linearGradient>
    <linearGradient id="bookLeft" x1="210" y1="340" x2="560" y2="760" gradientUnits="userSpaceOnUse">
      <stop stop-color="#1E2A52" />
      <stop offset="1" stop-color="#2E4E8C" />
    </linearGradient>
    <linearGradient id="bookRight" x1="610" y1="270" x2="950" y2="700" gradientUnits="userSpaceOnUse">
      <stop stop-color="#FFFFFF" />
      <stop offset="1" stop-color="#F4FAFE" />
    </linearGradient>
    <linearGradient id="notePurple" x1="610" y1="610" x2="1000" y2="935" gradientUnits="userSpaceOnUse">
      <stop stop-color="#8F67FF" />
      <stop offset="1" stop-color="#5632BF" />
    </linearGradient>
    <linearGradient id="noteBlue" x1="280" y1="700" x2="600" y2="990" gradientUnits="userSpaceOnUse">
      <stop stop-color="#9ED7F2" />
      <stop offset="1" stop-color="#5E9BC1" />
    </linearGradient>
    <linearGradient id="highlight" x1="434" y1="486" x2="714" y2="628" gradientUnits="userSpaceOnUse">
      <stop stop-color="#F7D77B" />
      <stop offset="1" stop-color="#F0B84B" />
    </linearGradient>
    <filter id="shadow" x="0" y="0" width="1200" height="1200" filterUnits="userSpaceOnUse" color-interpolation-filters="sRGB">
      <feDropShadow dx="0" dy="28" stdDeviation="30" flood-color="#16324A" flood-opacity="0.14" />
    </filter>
    <filter id="softShadow" x="0" y="0" width="1200" height="1200" filterUnits="userSpaceOnUse" color-interpolation-filters="sRGB">
      <feDropShadow dx="0" dy="18" stdDeviation="18" flood-color="#16324A" flood-opacity="0.12" />
    </filter>
  </defs>

  <circle cx="602" cy="586" r="372" fill="url(#bgGlow)" />
  <circle cx="822" cy="250" r="116" fill="#E9F3FB" />
  <circle cx="274" cy="864" r="150" fill="#F2F7FD" />

  <g filter="url(#shadow)">
    <rect x="248" y="214" width="706" height="756" rx="56" fill="white" />
  </g>

  <g filter="url(#softShadow)">
    <rect x="334" y="354" width="340" height="382" rx="42" transform="rotate(-10 334 354)" fill="url(#bookLeft)" />
    <rect x="616" y="292" width="276" height="350" rx="34" transform="rotate(8 616 292)" fill="url(#bookRight)" stroke="#DCE8F2" stroke-width="4" />
    <rect x="522" y="612" width="324" height="256" rx="36" transform="rotate(7 522 612)" fill="url(#notePurple)" />
    <rect x="346" y="666" width="284" height="198" rx="32" transform="rotate(-8 346 666)" fill="url(#noteBlue)" />
  </g>

  <g transform="rotate(-10 334 354)">
    <rect x="372" y="404" width="220" height="20" rx="10" fill="#FFFFFF" opacity="0.84" />
    <rect x="372" y="450" width="182" height="18" rx="9" fill="#DDEAF7" opacity="0.92" />
    <rect x="372" y="492" width="206" height="18" rx="9" fill="#DDEAF7" opacity="0.92" />
    <rect x="372" y="534" width="160" height="18" rx="9" fill="#DDEAF7" opacity="0.92" />
    <rect x="372" y="585" width="144" height="18" rx="9" fill="#DDEAF7" opacity="0.92" />
    <rect x="372" y="628" width="190" height="18" rx="9" fill="#DDEAF7" opacity="0.92" />
    <rect x="372" y="672" width="120" height="18" rx="9" fill="#DDEAF7" opacity="0.92" />
  </g>

  <g transform="rotate(8 616 292)">
    <rect x="656" y="344" width="180" height="24" rx="12" fill="#14213D" opacity="0.08" />
    <rect x="656" y="402" width="146" height="18" rx="9" fill="#CAD8E4" />
    <rect x="656" y="442" width="170" height="18" rx="9" fill="#CAD8E4" />
    <rect x="656" y="482" width="110" height="18" rx="9" fill="#CAD8E4" />
    <rect x="656" y="534" width="150" height="18" rx="9" fill="#CAD8E4" />
    <rect x="656" y="574" width="130" height="18" rx="9" fill="#CAD8E4" />
    <rect x="656" y="614" width="164" height="18" rx="9" fill="#CAD8E4" />
  </g>

  <g transform="rotate(7 522 612)">
    <rect x="570" y="662" width="210" height="26" rx="13" fill="#FFFFFF" opacity="0.18" />
    <rect x="570" y="720" width="194" height="18" rx="9" fill="#F8E8FF" opacity="0.88" />
    <rect x="570" y="760" width="170" height="18" rx="9" fill="#F8E8FF" opacity="0.88" />
    <rect x="570" y="800" width="182" height="18" rx="9" fill="#F8E8FF" opacity="0.88" />
    <rect x="570" y="840" width="136" height="18" rx="9" fill="#F8E8FF" opacity="0.88" />
  </g>

  <g transform="rotate(-8 346 666)">
    <rect x="392" y="706" width="204" height="22" rx="11" fill="#FFFFFF" opacity="0.22" />
    <rect x="392" y="756" width="166" height="16" rx="8" fill="#E8F7FF" opacity="0.92" />
    <rect x="392" y="792" width="184" height="16" rx="8" fill="#E8F7FF" opacity="0.92" />
    <rect x="392" y="828" width="140" height="16" rx="8" fill="#E8F7FF" opacity="0.92" />
  </g>

  <path d="M458 572C517 539 604 516 694 520C747 522 801 533 848 553" stroke="url(#highlight)" stroke-width="16" stroke-linecap="round" />
  <path d="M438 615C488 590 557 575 632 577C682 578 731 586 775 601" stroke="#9DD8F0" stroke-width="10" stroke-linecap="round" />
  <path d="M438 646C490 623 558 609 628 611C672 612 719 620 761 633" stroke="#FFFFFF" stroke-width="8" stroke-linecap="round" opacity="0.85" />

  <g filter="url(#softShadow)">
    <rect x="684" y="742" width="182" height="64" rx="20" fill="white" />
    <rect x="700" y="758" width="92" height="16" rx="8" fill="#1E2A52" opacity="0.14" />
    <rect x="700" y="784" width="126" height="12" rx="6" fill="#1E2A52" opacity="0.12" />
  </g>

  <g filter="url(#softShadow)">
    <rect x="348" y="792" width="154" height="54" rx="18" fill="white" />
    <rect x="364" y="808" width="84" height="14" rx="7" fill="#1E2A52" opacity="0.14" />
    <rect x="364" y="830" width="104" height="10" rx="5" fill="#1E2A52" opacity="0.12" />
  </g>

  <g>
    <rect x="548" y="932" width="186" height="18" rx="9" fill="#1E2A52" opacity="0.08" />
    <rect x="578" y="454" width="180" height="54" rx="18" fill="#FFFFFF" opacity="0.92" />
    <text x="608" y="488" fill="#1E2A52" font-family="Inter, Arial, sans-serif" font-size="24" font-weight="700">Português</text>
    <rect x="628" y="562" width="194" height="54" rx="18" fill="#FFFFFF" opacity="0.92" />
    <text x="656" y="596" fill="#1E2A52" font-family="Inter, Arial, sans-serif" font-size="24" font-weight="700">Filosofia</text>
  </g>
</svg>
